<svg width="363" height="149" viewBox="0 0 363 149" fill="none" xmlns="http://www.w3.org/2000/svg">
<g clip-path="url(#clip0_25_2469)">
<rect width="363" height="149" rx="8" fill="#02002D"/>
<g opacity="0.35" clip-path="url(#clip1_25_2469)">
<path opacity="0.72" d="M41 -20L64.6765 4.985" stroke="#13924E" stroke-width="5" stroke-linecap="round"/>
<path opacity="0.77" d="M64.6765 -20L88.353 4.985" stroke="#13924E" stroke-width="5" stroke-linecap="round"/>
<path opacity="0.96" d="M88.353 -20L112.03 4.985" stroke="#13924E" stroke-width="5" stroke-linecap="round"/>
<path opacity="0.38" d="M112.03 -20L135.706 4.985" stroke="#13924E" stroke-width="5" stroke-linecap="round"/>
<path opacity="0.42" d="M135.706 -20L159.383 4.985" stroke="#13924E" stroke-width="5" stroke-linecap="round"/>
<path opacity="0.79" d="M159.383 -20L183.059 4.985" stroke="#13924E" stroke-width="5" stroke-linecap="round"/>
<path opacity="0.74" d="M206.736 -20L183.059 4.985" stroke="#13924E" stroke-width="5" stroke-linecap="round"/>
<path opacity="0.65" d="M206.736 -20L230.412 4.985" stroke="#13924E" stroke-width="5" stroke-linecap="round"/>
<path opacity="0.5" d="M254.089 -20L230.412 4.985" stroke="#13924E" stroke-width="5" stroke-linecap="round"/>
<path opacity="0.88" d="M277.765 -20L254.089 4.985" stroke="#13924E" stroke-width="5" stroke-linecap="round"/>
<path opacity="0.47" d="M301.442 -20L277.765 4.985" stroke="#13924E" stroke-width="5" stroke-linecap="round"/>
<path opacity="0.47" d="M301.442 -20L325.118 4.985" stroke="#13924E" stroke-width="5" stroke-linecap="round"/>
<path opacity="0.2" d="M348.795 -20L325.118 4.985" stroke="#13924E" stroke-width="5" stroke-linecap="round"/>
<path opacity="0.59" d="M348.795 -20L372.471 4.985" stroke="#13924E" stroke-width="5" stroke-linecap="round"/>
<path d="M64.6765 4.98499L41 29.97" stroke="#13924E" stroke-width="5" stroke-linecap="round"/>
<path opacity="0.89" d="M64.6765 4.98499L88.353 29.97" stroke="#13924E" stroke-width="5" stroke-linecap="round"/>
<path opacity="0.19" d="M88.353 4.98499L112.03 29.97" stroke="#13924E" stroke-width="5" stroke-linecap="round"/>
<path opacity="0.8" d="M112.03 4.98499L135.706 29.97" stroke="#13924E" stroke-width="5" stroke-linecap="round"/>
<path opacity="0.91" d="M135.706 4.98499L159.383 29.97" stroke="#13924E" stroke-width="5" stroke-linecap="round"/>
<path opacity="0.52" d="M159.383 4.98499L183.059 29.97" stroke="#13924E" stroke-width="5" stroke-linecap="round"/>
<path opacity="0.46" d="M183.059 4.98499L206.736 29.97" stroke="#13924E" stroke-width="5" stroke-linecap="round"/>
<path opacity="0.21" d="M230.412 4.98499L206.736 29.97" stroke="#13924E" stroke-width="5" stroke-linecap="round"/>
<path opacity="0.6" d="M230.412 4.98499L254.089 29.97" stroke="#13924E" stroke-width="5" stroke-linecap="round"/>
<path opacity="0.36" d="M254.089 4.98499L277.765 29.97" stroke="#13924E" stroke-width="5" stroke-linecap="round"/>
<path opacity="0.5" d="M277.765 4.98499L301.442 29.97" stroke="#13924E" stroke-width="5" stroke-linecap="round"/>
<path opacity="0.67" d="M301.442 4.98499L325.118 29.97" stroke="#13924E" stroke-width="5" stroke-linecap="round"/>
<path opacity="0.25" d="M325.118 4.98499L348.795 29.97" stroke="#13924E" stroke-width="5" stroke-linecap="round"/>
<path opacity="0.79" d="M348.795 4.98499L372.471 29.97" stroke="#13924E" stroke-width="5" stroke-linecap="round"/>
<path opacity="0.15" d="M64.6765 29.97L41 54.955" stroke="#13924E" stroke-width="5" stroke-linecap="round"/>
<path opacity="0.96" d="M64.6765 29.97L88.353 54.955" stroke="#13924E" stroke-width="5" stroke-linecap="round"/>
<path opacity="0.18" d="M88.353 29.97L112.03 54.955" stroke="#13924E" stroke-width="5" stroke-linecap="round"/>
<path opacity="0.43" d="M112.03 29.97L135.706 54.955" stroke="#13924E" stroke-width="5" stroke-linecap="round"/>
<path opacity="0.88" d="M135.706 29.97L159.383 54.955" stroke="#13924E" stroke-width="5" stroke-linecap="round"/>
<path opacity="0.31" d="M159.383 29.97L183.059 54.955" stroke="#13924E" stroke-width="5" stroke-linecap="round"/>
<path opacity="0.25" d="M206.736 29.97L183.059 54.955" stroke="#13924E" stroke-width="5" stroke-linecap="round"/>
<path opacity="0.32" d="M230.412 29.97L206.736 54.955" stroke="#13924E" stroke-width="5" stroke-linecap="round"/>
<path opacity="0.68" d="M230.412 29.97L254.089 54.955" stroke="#13924E" stroke-width="5" stroke-linecap="round"/>
<path opacity="0.07" d="M254.089 29.97L277.765 54.955" stroke="#13924E" stroke-width="5" stroke-linecap="round"/>
<path opacity="0.71" d="M277.765 29.97L301.442 54.955" stroke="#13924E" stroke-width="5" stroke-linecap="round"/>
<path opacity="0.8" d="M301.442 29.97L325.118 54.955" stroke="#13924E" stroke-width="5" stroke-linecap="round"/>
<path opacity="0.33" d="M348.795 29.97L325.118 54.955" stroke="#13924E" stroke-width="5" stroke-linecap="round"/>
<path opacity="0.82" d="M348.795 29.97L372.471 54.955" stroke="#13924E" stroke-width="5" stroke-linecap="round"/>
<path opacity="0.1" d="M64.6765 54.955L41 79.94" stroke="#13924E" stroke-width="5" stroke-linecap="round"/>
<path opacity="0.54" d="M64.6765 54.955L88.353 79.94" stroke="#13924E" stroke-width="5" stroke-linecap="round"/>
<path opacity="0.35" d="M88.353 54.955L112.03 79.94" stroke="#13924E" stroke-width="5" stroke-linecap="round"/>
<path opacity="0.33" d="M135.706 54.955L112.03 79.94" stroke="#13924E" stroke-width="5" stroke-linecap="round"/>
<path opacity="0.93" d="M135.706 54.955L159.383 79.94" stroke="#13924E" stroke-width="5" stroke-linecap="round"/>
<path opacity="0.38" d="M159.383 54.955L183.059 79.94" stroke="#13924E" stroke-width="5" stroke-linecap="round"/>
<path opacity="0.8" d="M183.059 54.955L206.736 79.94" stroke="#13924E" stroke-width="5" stroke-linecap="round"/>
<path opacity="0.48" d="M206.736 54.955L230.412 79.94" stroke="#13924E" stroke-width="5" stroke-linecap="round"/>
<path opacity="0.74" d="M230.412 54.955L254.089 79.94" stroke="#13924E" stroke-width="5" stroke-linecap="round"/>
<path opacity="0.84" d="M254.089 54.955L277.765 79.94" stroke="#13924E" stroke-width="5" stroke-linecap="round"/>
<path opacity="0.32" d="M277.765 54.955L301.442 79.94" stroke="#13924E" stroke-width="5" stroke-linecap="round"/>
<path opacity="0.36" d="M301.442 54.955L325.118 79.94" stroke="#13924E" stroke-width="5" stroke-linecap="round"/>
<path opacity="0.78" d="M325.118 54.955L348.795 79.94" stroke="#13924E" stroke-width="5" stroke-linecap="round"/>
<path opacity="0.95" d="M348.795 54.955L372.471 79.94" stroke="#13924E" stroke-width="5" stroke-linecap="round"/>
<path opacity="0.4" d="M41 79.9399L64.6765 104.925" stroke="#13924E" stroke-width="5" stroke-linecap="round"/>
<path opacity="0.99" d="M88.353 79.9399L64.6765 104.925" stroke="#13924E" stroke-width="5" stroke-linecap="round"/>
<path opacity="0.18" d="M88.353 79.9399L112.03 104.925" stroke="#13924E" stroke-width="5" stroke-linecap="round"/>
<path opacity="0.65" d="M135.706 79.9399L112.03 104.925" stroke="#13924E" stroke-width="5" stroke-linecap="round"/>
<path opacity="0.38" d="M159.383 79.9399L135.706 104.925" stroke="#13924E" stroke-width="5" stroke-linecap="round"/>
<path opacity="0.25" d="M159.383 79.9399L183.059 104.925" stroke="#13924E" stroke-width="5" stroke-linecap="round"/>
<path opacity="0.66" d="M183.059 79.9399L206.736 104.925" stroke="#13924E" stroke-width="5" stroke-linecap="round"/>
<path opacity="0.82" d="M230.412 79.9399L206.736 104.925" stroke="#13924E" stroke-width="5" stroke-linecap="round"/>
<path opacity="0.34" d="M230.412 79.9399L254.089 104.925" stroke="#13924E" stroke-width="5" stroke-linecap="round"/>
<path opacity="0.99" d="M277.765 79.9399L254.089 104.925" stroke="#13924E" stroke-width="5" stroke-linecap="round"/>
<path opacity="0.22" d="M301.442 79.9399L277.765 104.925" stroke="#13924E" stroke-width="5" stroke-linecap="round"/>
<path opacity="0.3" d="M301.442 79.9399L325.118 104.925" stroke="#13924E" stroke-width="5" stroke-linecap="round"/>
<path opacity="0.15" d="M325.118 79.9399L348.795 104.925" stroke="#13924E" stroke-width="5" stroke-linecap="round"/>
<path opacity="0.88" d="M372.471 79.9399L348.795 104.925" stroke="#13924E" stroke-width="5" stroke-linecap="round"/>
<path opacity="0.96" d="M41 104.925L64.6765 129.91" stroke="#13924E" stroke-width="5" stroke-linecap="round"/>
<path opacity="0.94" d="M64.6765 104.925L88.353 129.91" stroke="#13924E" stroke-width="5" stroke-linecap="round"/>
<path opacity="0.66" d="M88.353 104.925L112.03 129.91" stroke="#13924E" stroke-width="5" stroke-linecap="round"/>
<path opacity="0.14" d="M112.03 104.925L135.706 129.91" stroke="#13924E" stroke-width="5" stroke-linecap="round"/>
<path opacity="0.88" d="M135.706 104.925L159.383 129.91" stroke="#13924E" stroke-width="5" stroke-linecap="round"/>
<path opacity="0.21" d="M183.059 104.925L159.383 129.91" stroke="#13924E" stroke-width="5" stroke-linecap="round"/>
<path opacity="0.51" d="M183.059 104.925L206.736 129.91" stroke="#13924E" stroke-width="5" stroke-linecap="round"/>
<path opacity="0.83" d="M206.736 104.925L230.412 129.91" stroke="#13924E" stroke-width="5" stroke-linecap="round"/>
<path opacity="0.81" d="M230.412 104.925L254.089 129.91" stroke="#13924E" stroke-width="5" stroke-linecap="round"/>
<path opacity="0.88" d="M277.765 104.925L254.089 129.91" stroke="#13924E" stroke-width="5" stroke-linecap="round"/>
<path opacity="0.82" d="M277.765 104.925L301.442 129.91" stroke="#13924E" stroke-width="5" stroke-linecap="round"/>
<path opacity="0.5" d="M301.442 104.925L325.118 129.91" stroke="#13924E" stroke-width="5" stroke-linecap="round"/>
<path opacity="0.44" d="M325.118 104.925L348.795 129.91" stroke="#13924E" stroke-width="5" stroke-linecap="round"/>
<path opacity="0.66" d="M348.795 104.925L372.471 129.91" stroke="#13924E" stroke-width="5" stroke-linecap="round"/>
<path opacity="0.27" d="M64.6765 129.91L41 154.895" stroke="#13924E" stroke-width="5" stroke-linecap="round"/>
<path opacity="0.39" d="M64.6765 129.91L88.353 154.895" stroke="#13924E" stroke-width="5" stroke-linecap="round"/>
<path opacity="0.91" d="M88.353 129.91L112.03 154.895" stroke="#13924E" stroke-width="5" stroke-linecap="round"/>
<path opacity="0.78" d="M135.706 129.91L112.03 154.895" stroke="#13924E" stroke-width="5" stroke-linecap="round"/>
<path opacity="0.32" d="M135.706 129.91L159.383 154.895" stroke="#13924E" stroke-width="5" stroke-linecap="round"/>
<path opacity="0.14" d="M183.059 129.91L159.383 154.895" stroke="#13924E" stroke-width="5" stroke-linecap="round"/>
<path opacity="0.18" d="M206.736 129.91L183.059 154.895" stroke="#13924E" stroke-width="5" stroke-linecap="round"/>
<path opacity="0.7" d="M206.736 129.91L230.412 154.895" stroke="#13924E" stroke-width="5" stroke-linecap="round"/>
<path opacity="0.74" d="M230.412 129.91L254.089 154.895" stroke="#13924E" stroke-width="5" stroke-linecap="round"/>
<path opacity="0.25" d="M254.089 129.91L277.765 154.895" stroke="#13924E" stroke-width="5" stroke-linecap="round"/>
<path opacity="0.75" d="M301.442 129.91L277.765 154.895" stroke="#13924E" stroke-width="5" stroke-linecap="round"/>
<path opacity="0.54" d="M301.442 129.91L325.118 154.895" stroke="#13924E" stroke-width="5" stroke-linecap="round"/>
<path opacity="0.23" d="M325.118 129.91L348.795 154.895" stroke="#13924E" stroke-width="5" stroke-linecap="round"/>
<path opacity="0.72" d="M348.795 129.91L372.471 154.895" stroke="#13924E" stroke-width="5" stroke-linecap="round"/>
</g>
<path d="M12.7159 18.897V16.9091H23.1605V18.897H19.1143V30H16.7621V18.897H12.7159ZM27.3857 24.2472V30H25.0717V16.9091H27.3345V21.8501H27.4496C27.6797 21.2962 28.0355 20.8594 28.517 20.5398C29.0028 20.2159 29.6207 20.054 30.3707 20.054C31.0526 20.054 31.647 20.1967 32.1541 20.4822C32.6612 20.7678 33.0533 21.1854 33.3303 21.7351C33.6115 22.2848 33.7521 22.956 33.7521 23.7486V30H31.4382V24.1065C31.4382 23.446 31.2678 22.9325 30.9268 22.5661C30.5902 22.1953 30.1172 22.0099 29.5078 22.0099C29.0987 22.0099 28.7322 22.0994 28.4084 22.2784C28.0888 22.4531 27.8374 22.7067 27.6541 23.0391C27.4751 23.3714 27.3857 23.7741 27.3857 24.2472ZM40.4574 30.1918C39.473 30.1918 38.6229 29.9872 37.907 29.5781C37.1953 29.1648 36.6477 28.581 36.2642 27.8267C35.8807 27.0682 35.6889 26.1754 35.6889 25.1484C35.6889 24.1385 35.8807 23.2521 36.2642 22.4893C36.652 21.7223 37.1932 21.1257 37.8878 20.6996C38.5824 20.2692 39.3984 20.054 40.3359 20.054C40.9411 20.054 41.5121 20.152 42.049 20.348C42.5902 20.5398 43.0675 20.8381 43.4808 21.2429C43.8984 21.6477 44.2266 22.1634 44.4652 22.7898C44.7038 23.4119 44.8232 24.1534 44.8232 25.0142V25.7237H36.7756V24.1641H42.6051C42.6009 23.7209 42.505 23.3267 42.3175 22.9815C42.13 22.6321 41.8679 22.3572 41.5312 22.157C41.1989 21.9567 40.8111 21.8565 40.3679 21.8565C39.8949 21.8565 39.4794 21.9716 39.1214 22.2017C38.7635 22.4276 38.4844 22.7259 38.2841 23.0966C38.0881 23.4631 37.9879 23.8658 37.9837 24.3047V25.6662C37.9837 26.2372 38.0881 26.7273 38.2969 27.1364C38.5057 27.5412 38.7976 27.8523 39.1726 28.0696C39.5476 28.2827 39.9865 28.3892 40.4893 28.3892C40.826 28.3892 41.1307 28.3423 41.4034 28.2486C41.6761 28.1506 41.9126 28.0078 42.1129 27.8203C42.3132 27.6328 42.4645 27.4006 42.5668 27.1236L44.7273 27.3665C44.5909 27.9375 44.331 28.4361 43.9474 28.8622C43.5682 29.2841 43.0824 29.6122 42.4901 29.8466C41.8977 30.0767 41.2202 30.1918 40.4574 30.1918ZM53.0289 30H50.4977L55.1064 16.9091H58.0339L62.649 30H60.1177L56.6213 19.5938H56.519L53.0289 30ZM53.112 24.8672H60.0154V26.772H53.112V24.8672ZM66.5849 16.9091V30H64.271V16.9091H66.5849ZM71.2782 16.9091V30H68.9643V16.9091H71.2782ZM78.2248 30V16.9091H80.5962V22.451H86.6623V16.9091H89.0401V30H86.6623V24.4389H80.5962V30H78.2248ZM94.3423 30.1982C93.7202 30.1982 93.1598 30.0874 92.6612 29.8658C92.1669 29.6399 91.7749 29.3075 91.4851 28.8686C91.1996 28.4297 91.0568 27.8885 91.0568 27.245C91.0568 26.6911 91.1591 26.233 91.3636 25.8707C91.5682 25.5085 91.8473 25.2188 92.201 25.0014C92.5547 24.7841 92.9531 24.62 93.3963 24.5092C93.8438 24.3942 94.3061 24.3111 94.7834 24.2599C95.3587 24.2003 95.8253 24.147 96.1832 24.1001C96.5412 24.049 96.8011 23.9723 96.9631 23.87C97.1293 23.7635 97.2124 23.5994 97.2124 23.3778V23.3395C97.2124 22.858 97.0696 22.4851 96.7841 22.2209C96.4986 21.9567 96.0874 21.8246 95.5504 21.8246C94.9837 21.8246 94.5341 21.9482 94.2017 22.1953C93.8736 22.4425 93.652 22.7344 93.5369 23.071L91.3764 22.7642C91.5469 22.1676 91.8281 21.669 92.2202 21.2685C92.6122 20.8636 93.0916 20.5611 93.6584 20.3608C94.2251 20.1562 94.8516 20.054 95.5376 20.054C96.0107 20.054 96.4815 20.1094 96.9503 20.2202C97.419 20.331 97.8473 20.5142 98.2351 20.7699C98.6229 21.0213 98.9339 21.3643 99.1683 21.799C99.407 22.2337 99.5263 22.777 99.5263 23.429V30H97.3018V28.6513H97.2251C97.0845 28.924 96.8864 29.1797 96.6307 29.4183C96.3793 29.6527 96.0618 29.8423 95.6783 29.9872C95.299 30.1278 94.8537 30.1982 94.3423 30.1982ZM94.9432 28.4979C95.4077 28.4979 95.8104 28.4062 96.1513 28.223C96.4922 28.0355 96.7543 27.7884 96.9375 27.4815C97.125 27.1747 97.2188 26.8402 97.2188 26.478V25.321C97.1463 25.3807 97.0227 25.4361 96.848 25.4872C96.6776 25.5384 96.4858 25.5831 96.2727 25.6214C96.0597 25.6598 95.8487 25.6939 95.6399 25.7237C95.4311 25.7536 95.25 25.7791 95.0966 25.8004C94.7514 25.8473 94.4425 25.924 94.1697 26.0305C93.897 26.1371 93.6818 26.2862 93.5241 26.478C93.3665 26.6655 93.2876 26.9084 93.2876 27.2067C93.2876 27.6328 93.4432 27.9545 93.7543 28.1719C94.0653 28.3892 94.4616 28.4979 94.9432 28.4979ZM106.136 30.1918C105.156 30.1918 104.314 29.9766 103.611 29.5462C102.912 29.1158 102.373 28.5213 101.994 27.7628C101.619 27 101.431 26.1222 101.431 25.1293C101.431 24.1321 101.623 23.2521 102.006 22.4893C102.39 21.7223 102.931 21.1257 103.63 20.6996C104.333 20.2692 105.164 20.054 106.123 20.054C106.92 20.054 107.625 20.201 108.239 20.495C108.857 20.7848 109.349 21.196 109.715 21.7287C110.082 22.2571 110.29 22.875 110.342 23.5824H108.13C108.04 23.1094 107.827 22.7152 107.491 22.3999C107.158 22.0803 106.713 21.9205 106.155 21.9205C105.682 21.9205 105.266 22.0483 104.908 22.304C104.55 22.5554 104.271 22.9176 104.071 23.3906C103.875 23.8636 103.777 24.4304 103.777 25.0909C103.777 25.7599 103.875 26.3352 104.071 26.8168C104.267 27.294 104.542 27.6626 104.896 27.9226C105.254 28.1783 105.673 28.3061 106.155 28.3061C106.496 28.3061 106.8 28.2422 107.069 28.1143C107.342 27.9822 107.57 27.7926 107.753 27.5455C107.936 27.2983 108.062 26.9979 108.13 26.6442H110.342C110.286 27.3388 110.082 27.9545 109.728 28.4915C109.374 29.0241 108.893 29.4418 108.283 29.7443C107.674 30.0426 106.958 30.1918 106.136 30.1918ZM114.351 26.919L114.345 24.1257H114.715L118.244 20.1818H120.948L116.607 25.0142H116.128L114.351 26.919ZM112.242 30V16.9091H114.556V30H112.242ZM118.404 30L115.208 25.532L116.767 23.902L121.171 30H118.404ZM130.25 22.777L128.14 23.0071C128.081 22.794 127.976 22.5938 127.827 22.4062C127.682 22.2188 127.486 22.0675 127.239 21.9524C126.992 21.8374 126.689 21.7798 126.331 21.7798C125.85 21.7798 125.445 21.8842 125.117 22.093C124.793 22.3018 124.633 22.5724 124.637 22.9048C124.633 23.1903 124.738 23.4226 124.951 23.6016C125.168 23.7805 125.526 23.9276 126.025 24.0426L127.699 24.4006C128.628 24.6009 129.319 24.9183 129.77 25.353C130.226 25.7876 130.456 26.3565 130.461 27.0597C130.456 27.6776 130.275 28.223 129.917 28.696C129.564 29.1648 129.071 29.5312 128.441 29.7955C127.81 30.0597 127.086 30.1918 126.267 30.1918C125.066 30.1918 124.098 29.9403 123.365 29.4375C122.632 28.9304 122.196 28.2251 122.055 27.3217L124.311 27.1044C124.414 27.5476 124.631 27.8821 124.963 28.108C125.296 28.3338 125.728 28.4467 126.261 28.4467C126.811 28.4467 127.252 28.3338 127.584 28.108C127.921 27.8821 128.089 27.603 128.089 27.2706C128.089 26.9893 127.98 26.7571 127.763 26.5739C127.55 26.3906 127.218 26.25 126.766 26.152L125.091 25.8004C124.15 25.6044 123.453 25.2741 123.001 24.8097C122.549 24.3409 122.326 23.7486 122.33 23.0327C122.326 22.4276 122.49 21.9034 122.822 21.4602C123.159 21.0128 123.625 20.6676 124.222 20.4247C124.823 20.1776 125.515 20.054 126.299 20.054C127.45 20.054 128.355 20.299 129.016 20.7891C129.681 21.2791 130.092 21.9418 130.25 22.777ZM136.936 30V16.9091H139.307V22.451H145.373V16.9091H147.751V30H145.373V24.4389H139.307V30H136.936ZM153.053 30.1982C152.431 30.1982 151.871 30.0874 151.372 29.8658C150.878 29.6399 150.486 29.3075 150.196 28.8686C149.911 28.4297 149.768 27.8885 149.768 27.245C149.768 26.6911 149.87 26.233 150.075 25.8707C150.279 25.5085 150.558 25.2188 150.912 25.0014C151.266 24.7841 151.664 24.62 152.107 24.5092C152.555 24.3942 153.017 24.3111 153.494 24.2599C154.07 24.2003 154.536 24.147 154.894 24.1001C155.252 24.049 155.512 23.9723 155.674 23.87C155.84 23.7635 155.923 23.5994 155.923 23.3778V23.3395C155.923 22.858 155.781 22.4851 155.495 22.2209C155.21 21.9567 154.798 21.8246 154.261 21.8246C153.695 21.8246 153.245 21.9482 152.913 22.1953C152.585 22.4425 152.363 22.7344 152.248 23.071L150.087 22.7642C150.258 22.1676 150.539 21.669 150.931 21.2685C151.323 20.8636 151.803 20.5611 152.369 20.3608C152.936 20.1562 153.563 20.054 154.249 20.054C154.722 20.054 155.192 20.1094 155.661 20.2202C156.13 20.331 156.558 20.5142 156.946 20.7699C157.334 21.0213 157.645 21.3643 157.879 21.799C158.118 22.2337 158.237 22.777 158.237 23.429V30H156.013V28.6513H155.936C155.795 28.924 155.597 29.1797 155.342 29.4183C155.09 29.6527 154.773 29.8423 154.389 29.9872C154.01 30.1278 153.565 30.1982 153.053 30.1982ZM153.654 28.4979C154.119 28.4979 154.521 28.4062 154.862 28.223C155.203 28.0355 155.465 27.7884 155.648 27.4815C155.836 27.1747 155.93 26.8402 155.93 26.478V25.321C155.857 25.3807 155.734 25.4361 155.559 25.4872C155.388 25.5384 155.197 25.5831 154.984 25.6214C154.771 25.6598 154.56 25.6939 154.351 25.7237C154.142 25.7536 153.961 25.7791 153.808 25.8004C153.462 25.8473 153.153 25.924 152.881 26.0305C152.608 26.1371 152.393 26.2862 152.235 26.478C152.077 26.6655 151.999 26.9084 151.999 27.2067C151.999 27.6328 152.154 27.9545 152.465 28.1719C152.776 28.3892 153.173 28.4979 153.654 28.4979ZM164.847 30.1918C163.866 30.1918 163.025 29.9766 162.322 29.5462C161.623 29.1158 161.084 28.5213 160.705 27.7628C160.33 27 160.142 26.1222 160.142 25.1293C160.142 24.1321 160.334 23.2521 160.717 22.4893C161.101 21.7223 161.642 21.1257 162.341 20.6996C163.044 20.2692 163.875 20.054 164.834 20.054C165.631 20.054 166.336 20.201 166.95 20.495C167.567 20.7848 168.06 21.196 168.426 21.7287C168.793 22.2571 169.001 22.875 169.053 23.5824H166.841C166.751 23.1094 166.538 22.7152 166.202 22.3999C165.869 22.0803 165.424 21.9205 164.866 21.9205C164.393 21.9205 163.977 22.0483 163.619 22.304C163.261 22.5554 162.982 22.9176 162.782 23.3906C162.586 23.8636 162.488 24.4304 162.488 25.0909C162.488 25.7599 162.586 26.3352 162.782 26.8168C162.978 27.294 163.253 27.6626 163.607 27.9226C163.964 28.1783 164.384 28.3061 164.866 28.3061C165.207 28.3061 165.511 28.2422 165.78 28.1143C166.053 27.9822 166.281 27.7926 166.464 27.5455C166.647 27.2983 166.773 26.9979 166.841 26.6442H169.053C168.997 27.3388 168.793 27.9545 168.439 28.4915C168.085 29.0241 167.604 29.4418 166.994 29.7443C166.385 30.0426 165.669 30.1918 164.847 30.1918ZM173.062 26.919L173.056 24.1257H173.426L176.955 20.1818H179.659L175.318 25.0142H174.839L173.062 26.919ZM170.953 30V16.9091H173.267V30H170.953ZM177.115 30L173.919 25.532L175.478 23.902L179.882 30H177.115ZM184.026 30.1982C183.404 30.1982 182.843 30.0874 182.345 29.8658C181.85 29.6399 181.458 29.3075 181.169 28.8686C180.883 28.4297 180.74 27.8885 180.74 27.245C180.74 26.6911 180.843 26.233 181.047 25.8707C181.252 25.5085 181.531 25.2188 181.885 25.0014C182.238 24.7841 182.637 24.62 183.08 24.5092C183.527 24.3942 183.99 24.3111 184.467 24.2599C185.042 24.2003 185.509 24.147 185.867 24.1001C186.225 24.049 186.485 23.9723 186.647 23.87C186.813 23.7635 186.896 23.5994 186.896 23.3778V23.3395C186.896 22.858 186.753 22.4851 186.468 22.2209C186.182 21.9567 185.771 21.8246 185.234 21.8246C184.667 21.8246 184.218 21.9482 183.885 22.1953C183.557 22.4425 183.336 22.7344 183.221 23.071L181.06 22.7642C181.23 22.1676 181.512 21.669 181.904 21.2685C182.296 20.8636 182.775 20.5611 183.342 20.3608C183.909 20.1562 184.535 20.054 185.221 20.054C185.694 20.054 186.165 20.1094 186.634 20.2202C187.103 20.331 187.531 20.5142 187.919 20.7699C188.306 21.0213 188.618 21.3643 188.852 21.799C189.091 22.2337 189.21 22.777 189.21 23.429V30H186.985V28.6513H186.909C186.768 28.924 186.57 29.1797 186.314 29.4183C186.063 29.6527 185.745 29.8423 185.362 29.9872C184.983 30.1278 184.537 30.1982 184.026 30.1982ZM184.627 28.4979C185.091 28.4979 185.494 28.4062 185.835 28.223C186.176 28.0355 186.438 27.7884 186.621 27.4815C186.809 27.1747 186.902 26.8402 186.902 26.478V25.321C186.83 25.3807 186.706 25.4361 186.532 25.4872C186.361 25.5384 186.169 25.5831 185.956 25.6214C185.743 25.6598 185.532 25.6939 185.324 25.7237C185.115 25.7536 184.934 25.7791 184.78 25.8004C184.435 25.8473 184.126 25.924 183.853 26.0305C183.581 26.1371 183.365 26.2862 183.208 26.478C183.05 26.6655 182.971 26.9084 182.971 27.2067C182.971 27.6328 183.127 27.9545 183.438 28.1719C183.749 28.3892 184.145 28.4979 184.627 28.4979ZM196.439 20.1818V21.9716H190.795V20.1818H196.439ZM192.189 17.8295H194.502V27.0469C194.502 27.358 194.549 27.5966 194.643 27.7628C194.741 27.9247 194.869 28.0355 195.027 28.0952C195.184 28.1548 195.359 28.1847 195.551 28.1847C195.696 28.1847 195.828 28.174 195.947 28.1527C196.071 28.1314 196.164 28.1122 196.228 28.0952L196.618 29.9041C196.495 29.9467 196.318 29.9936 196.088 30.0447C195.862 30.0959 195.585 30.1257 195.257 30.1342C194.677 30.1513 194.155 30.0639 193.691 29.8722C193.226 29.6761 192.858 29.3736 192.585 28.9645C192.316 28.5554 192.184 28.044 192.189 27.4304V17.8295ZM200.899 24.2472V30H198.585V16.9091H200.848V21.8501H200.963C201.193 21.2962 201.549 20.8594 202.031 20.5398C202.517 20.2159 203.134 20.054 203.884 20.054C204.566 20.054 205.161 20.1967 205.668 20.4822C206.175 20.7678 206.567 21.1854 206.844 21.7351C207.125 22.2848 207.266 22.956 207.266 23.7486V30H204.952V24.1065C204.952 23.446 204.781 22.9325 204.441 22.5661C204.104 22.1953 203.631 22.0099 203.021 22.0099C202.612 22.0099 202.246 22.0994 201.922 22.2784C201.602 22.4531 201.351 22.7067 201.168 23.0391C200.989 23.3714 200.899 23.7741 200.899 24.2472ZM213.907 30.1918C212.948 30.1918 212.117 29.9808 211.414 29.5589C210.711 29.1371 210.166 28.5469 209.778 27.7884C209.394 27.0298 209.203 26.1435 209.203 25.1293C209.203 24.1151 209.394 23.2266 209.778 22.4638C210.166 21.701 210.711 21.1087 211.414 20.6868C212.117 20.2649 212.948 20.054 213.907 20.054C214.866 20.054 215.697 20.2649 216.4 20.6868C217.103 21.1087 217.646 21.701 218.03 22.4638C218.418 23.2266 218.612 24.1151 218.612 25.1293C218.612 26.1435 218.418 27.0298 218.03 27.7884C217.646 28.5469 217.103 29.1371 216.4 29.5589C215.697 29.9808 214.866 30.1918 213.907 30.1918ZM213.92 28.3381C214.44 28.3381 214.874 28.1953 215.224 27.9098C215.573 27.62 215.833 27.2322 216.004 26.7464C216.178 26.2607 216.266 25.7195 216.266 25.1229C216.266 24.522 216.178 23.9787 216.004 23.4929C215.833 23.0028 215.573 22.6129 215.224 22.3232C214.874 22.0334 214.44 21.8885 213.92 21.8885C213.387 21.8885 212.944 22.0334 212.59 22.3232C212.241 22.6129 211.979 23.0028 211.804 23.4929C211.634 23.9787 211.548 24.522 211.548 25.1229C211.548 25.7195 211.634 26.2607 211.804 26.7464C211.979 27.2322 212.241 27.62 212.59 27.9098C212.944 28.1953 213.387 28.3381 213.92 28.3381ZM222.89 24.2472V30H220.576V20.1818H222.787V21.8501H222.902C223.128 21.3004 223.488 20.8636 223.983 20.5398C224.481 20.2159 225.097 20.054 225.83 20.054C226.507 20.054 227.098 20.1989 227.6 20.4886C228.108 20.7784 228.5 21.1982 228.777 21.7479C229.058 22.2976 229.196 22.9645 229.192 23.7486V30H226.878V24.1065C226.878 23.4503 226.708 22.9368 226.367 22.5661C226.03 22.1953 225.564 22.0099 224.967 22.0099C224.562 22.0099 224.202 22.0994 223.887 22.2784C223.576 22.4531 223.331 22.7067 223.152 23.0391C222.977 23.3714 222.89 23.7741 222.89 24.2472ZM24.4964 43.326H22.1058C22.0376 42.9339 21.9119 42.5866 21.7287 42.2841C21.5455 41.9773 21.3175 41.7173 21.0447 41.5043C20.772 41.2912 20.4609 41.1314 20.1115 41.0249C19.7663 40.9141 19.3935 40.8587 18.9929 40.8587C18.2813 40.8587 17.6506 41.0376 17.1009 41.3956C16.5511 41.7493 16.1207 42.2692 15.8097 42.9553C15.4986 43.6371 15.343 44.4702 15.343 45.4545C15.343 46.456 15.4986 47.2997 15.8097 47.9858C16.125 48.6676 16.5554 49.1832 17.1009 49.5327C17.6506 49.8778 18.2791 50.0504 18.9865 50.0504C19.3786 50.0504 19.745 49.9993 20.0859 49.897C20.4311 49.7905 20.7401 49.6349 21.0128 49.4304C21.2898 49.2259 21.522 48.9744 21.7095 48.6761C21.9013 48.3778 22.0334 48.0369 22.1058 47.6534L24.4964 47.6662C24.407 48.2884 24.2131 48.8722 23.9148 49.4176C23.6207 49.9631 23.2351 50.4446 22.7578 50.8622C22.2805 51.2756 21.7223 51.5994 21.0831 51.8338C20.4439 52.0639 19.7344 52.179 18.9545 52.179C17.804 52.179 16.777 51.9126 15.8736 51.38C14.9702 50.8473 14.2585 50.0781 13.7386 49.0724C13.2188 48.0668 12.9588 46.8608 12.9588 45.4545C12.9588 44.044 13.2209 42.8381 13.745 41.8366C14.2692 40.831 14.983 40.0618 15.8864 39.5291C16.7898 38.9964 17.8125 38.7301 18.9545 38.7301C19.6832 38.7301 20.3608 38.8324 20.9872 39.0369C21.6136 39.2415 22.1719 39.5419 22.6619 39.9382C23.152 40.3303 23.5547 40.8118 23.87 41.3828C24.1896 41.9496 24.3984 42.5973 24.4964 43.326ZM30.8485 52.1918C29.8897 52.1918 29.0588 51.9808 28.3556 51.5589C27.6525 51.1371 27.1071 50.5469 26.7193 49.7884C26.3358 49.0298 26.144 48.1435 26.144 47.1293C26.144 46.1151 26.3358 45.2266 26.7193 44.4638C27.1071 43.701 27.6525 43.1087 28.3556 42.6868C29.0588 42.2649 29.8897 42.054 30.8485 42.054C31.8074 42.054 32.6383 42.2649 33.3414 42.6868C34.0446 43.1087 34.5879 43.701 34.9714 44.4638C35.3592 45.2266 35.5531 46.1151 35.5531 47.1293C35.5531 48.1435 35.3592 49.0298 34.9714 49.7884C34.5879 50.5469 34.0446 51.1371 33.3414 51.5589C32.6383 51.9808 31.8074 52.1918 30.8485 52.1918ZM30.8613 50.3381C31.3812 50.3381 31.8159 50.1953 32.1653 49.9098C32.5147 49.62 32.7747 49.2322 32.9451 48.7464C33.1199 48.2607 33.2072 47.7195 33.2072 47.1229C33.2072 46.522 33.1199 45.9787 32.9451 45.4929C32.7747 45.0028 32.5147 44.6129 32.1653 44.3232C31.8159 44.0334 31.3812 43.8885 30.8613 43.8885C30.3287 43.8885 29.8855 44.0334 29.5318 44.3232C29.1824 44.6129 28.9203 45.0028 28.7456 45.4929C28.5751 45.9787 28.4899 46.522 28.4899 47.1229C28.4899 47.7195 28.5751 48.2607 28.7456 48.7464C28.9203 49.2322 29.1824 49.62 29.5318 49.9098C29.8855 50.1953 30.3287 50.3381 30.8613 50.3381ZM39.831 46.2472V52H37.517V42.1818H39.7287V43.8501H39.8438C40.0696 43.3004 40.4297 42.8636 40.924 42.5398C41.4226 42.2159 42.0384 42.054 42.7713 42.054C43.4489 42.054 44.0391 42.1989 44.5419 42.4886C45.049 42.7784 45.4411 43.1982 45.718 43.7479C45.9993 44.2976 46.1378 44.9645 46.1335 45.7486V52H43.8196V46.1065C43.8196 45.4503 43.6491 44.9368 43.3082 44.5661C42.9716 44.1953 42.505 44.0099 41.9084 44.0099C41.5036 44.0099 41.1435 44.0994 40.8281 44.2784C40.517 44.4531 40.272 44.7067 40.093 45.0391C39.9183 45.3714 39.831 45.7741 39.831 46.2472ZM53.3885 42.1818V43.9716H47.7443V42.1818H53.3885ZM49.1378 39.8295H51.4517V49.0469C51.4517 49.358 51.4986 49.5966 51.5923 49.7628C51.6903 49.9247 51.8182 50.0355 51.9759 50.0952C52.1335 50.1548 52.3082 50.1847 52.5 50.1847C52.6449 50.1847 52.777 50.174 52.8963 50.1527C53.0199 50.1314 53.1136 50.1122 53.1776 50.0952L53.5675 51.9041C53.4439 51.9467 53.267 51.9936 53.0369 52.0447C52.8111 52.0959 52.5341 52.1257 52.206 52.1342C51.6264 52.1513 51.1044 52.0639 50.6399 51.8722C50.1754 51.6761 49.8068 51.3736 49.5341 50.9645C49.2656 50.5554 49.1335 50.044 49.1378 49.4304V39.8295ZM59.5648 52.1918C58.5804 52.1918 57.7303 51.9872 57.0144 51.5781C56.3027 51.1648 55.7551 50.581 55.3716 49.8267C54.9881 49.0682 54.7963 48.1754 54.7963 47.1484C54.7963 46.1385 54.9881 45.2521 55.3716 44.4893C55.7594 43.7223 56.3006 43.1257 56.9952 42.6996C57.6898 42.2692 58.5059 42.054 59.4434 42.054C60.0485 42.054 60.6195 42.152 61.1564 42.348C61.6976 42.5398 62.1749 42.8381 62.5882 43.2429C63.0059 43.6477 63.334 44.1634 63.5726 44.7898C63.8113 45.4119 63.9306 46.1534 63.9306 47.0142V47.7237H55.883V46.1641H61.7125C61.7083 45.7209 61.6124 45.3267 61.4249 44.9815C61.2374 44.6321 60.9753 44.3572 60.6387 44.157C60.3063 43.9567 59.9185 43.8565 59.4753 43.8565C59.0023 43.8565 58.5868 43.9716 58.2289 44.2017C57.8709 44.4276 57.5918 44.7259 57.3915 45.0966C57.1955 45.4631 57.0953 45.8658 57.0911 46.3047V47.6662C57.0911 48.2372 57.1955 48.7273 57.4043 49.1364C57.6131 49.5412 57.905 49.8523 58.28 50.0696C58.655 50.2827 59.0939 50.3892 59.5968 50.3892C59.9334 50.3892 60.2381 50.3423 60.5108 50.2486C60.7836 50.1506 61.0201 50.0078 61.2203 49.8203C61.4206 49.6328 61.5719 49.4006 61.6742 49.1236L63.8347 49.3665C63.6983 49.9375 63.4384 50.4361 63.0549 50.8622C62.6756 51.2841 62.1898 51.6122 61.5975 51.8466C61.0051 52.0767 60.3276 52.1918 59.5648 52.1918ZM73.6481 44.777L71.5387 45.0071C71.479 44.794 71.3746 44.5938 71.2255 44.4062C71.0806 44.2188 70.8846 44.0675 70.6374 43.9524C70.3903 43.8374 70.0877 43.7798 69.7298 43.7798C69.2482 43.7798 68.8434 43.8842 68.5153 44.093C68.1914 44.3018 68.0316 44.5724 68.0359 44.9048C68.0316 45.1903 68.136 45.4226 68.3491 45.6016C68.5664 45.7805 68.9244 45.9276 69.4229 46.0426L71.0977 46.4006C72.0266 46.6009 72.717 46.9183 73.1687 47.353C73.6246 47.7876 73.8548 48.3565 73.859 49.0597C73.8548 49.6776 73.6737 50.223 73.3157 50.696C72.962 51.1648 72.4698 51.5312 71.8391 51.7955C71.2085 52.0597 70.484 52.1918 69.6658 52.1918C68.4641 52.1918 67.4968 51.9403 66.7638 51.4375C66.0309 50.9304 65.5941 50.2251 65.4535 49.3217L67.7099 49.1044C67.8121 49.5476 68.0295 49.8821 68.3619 50.108C68.6942 50.3338 69.1268 50.4467 69.6594 50.4467C70.2092 50.4467 70.6502 50.3338 70.9826 50.108C71.3192 49.8821 71.4876 49.603 71.4876 49.2706C71.4876 48.9893 71.3789 48.7571 71.1616 48.5739C70.9485 48.3906 70.6161 48.25 70.1644 48.152L68.4897 47.8004C67.5479 47.6044 66.8512 47.2741 66.3995 46.8097C65.9478 46.3409 65.7241 45.7486 65.7283 45.0327C65.7241 44.4276 65.8881 43.9034 66.2205 43.4602C66.5572 43.0128 67.0238 42.6676 67.6204 42.4247C68.2212 42.1776 68.9137 42.054 69.6978 42.054C70.8484 42.054 71.7539 42.299 72.4144 42.7891C73.0792 43.2791 73.4904 43.9418 73.6481 44.777ZM80.6697 42.1818V43.9716H75.0256V42.1818H80.6697ZM76.419 39.8295H78.733V49.0469C78.733 49.358 78.7798 49.5966 78.8736 49.7628C78.9716 49.9247 79.0994 50.0355 79.2571 50.0952C79.4148 50.1548 79.5895 50.1847 79.7812 50.1847C79.9261 50.1847 80.0582 50.174 80.1776 50.1527C80.3011 50.1314 80.3949 50.1122 80.4588 50.0952L80.8487 51.9041C80.7251 51.9467 80.5483 51.9936 80.3182 52.0447C80.0923 52.0959 79.8153 52.1257 79.4872 52.1342C78.9077 52.1513 78.3857 52.0639 77.9212 51.8722C77.4567 51.6761 77.0881 51.3736 76.8153 50.9645C76.5469 50.5554 76.4148 50.044 76.419 49.4304V39.8295ZM84.0304 52.1406C83.6426 52.1406 83.3102 52.0043 83.0332 51.7315C82.7562 51.4588 82.6199 51.1264 82.6241 50.7344C82.6199 50.3509 82.7562 50.0227 83.0332 49.75C83.3102 49.4773 83.6426 49.3409 84.0304 49.3409C84.4054 49.3409 84.7314 49.4773 85.0083 49.75C85.2896 50.0227 85.4324 50.3509 85.4366 50.7344C85.4324 50.9943 85.3642 51.2308 85.2321 51.4439C85.1042 51.657 84.9338 51.8274 84.7207 51.9553C84.5119 52.0788 84.2818 52.1406 84.0304 52.1406ZM84.0304 45.1349C83.6426 45.1349 83.3102 44.9986 83.0332 44.7259C82.7562 44.4489 82.6199 44.1165 82.6241 43.7287C82.6199 43.3452 82.7562 43.017 83.0332 42.7443C83.3102 42.4673 83.6426 42.3288 84.0304 42.3288C84.4054 42.3288 84.7314 42.4673 85.0083 42.7443C85.2896 43.017 85.4324 43.3452 85.4366 43.7287C85.4324 43.9844 85.3642 44.2187 85.2321 44.4318C85.1042 44.6449 84.9338 44.8153 84.7207 44.9432C84.5119 45.071 84.2818 45.1349 84.0304 45.1349Z" fill="white"/>
<path d="M288.415 129.773L291.006 137.119H291.108L293.699 129.773H294.807L291.602 138.5H290.511L287.307 129.773H288.415ZM298.08 138.636C297.489 138.636 296.97 138.496 296.524 138.214C296.081 137.933 295.734 137.54 295.484 137.034C295.237 136.528 295.114 135.937 295.114 135.261C295.114 134.58 295.237 133.984 295.484 133.476C295.734 132.967 296.081 132.572 296.524 132.291C296.97 132.01 297.489 131.869 298.08 131.869C298.67 131.869 299.188 132.01 299.631 132.291C300.077 132.572 300.423 132.967 300.67 133.476C300.92 133.984 301.045 134.58 301.045 135.261C301.045 135.937 300.92 136.528 300.67 137.034C300.423 137.54 300.077 137.933 299.631 138.214C299.188 138.496 298.67 138.636 298.08 138.636ZM298.08 137.733C298.528 137.733 298.898 137.618 299.188 137.388C299.477 137.158 299.692 136.855 299.831 136.48C299.97 136.105 300.04 135.699 300.04 135.261C300.04 134.824 299.97 134.416 299.831 134.038C299.692 133.661 299.477 133.355 299.188 133.122C298.898 132.889 298.528 132.773 298.08 132.773C297.631 132.773 297.261 132.889 296.972 133.122C296.682 133.355 296.467 133.661 296.328 134.038C296.189 134.416 296.119 134.824 296.119 135.261C296.119 135.699 296.189 136.105 296.328 136.48C296.467 136.855 296.682 137.158 296.972 137.388C297.261 137.618 297.631 137.733 298.08 137.733ZM305.427 131.955V132.807H302.035V131.955H305.427ZM303.024 130.386H304.029V136.625C304.029 136.909 304.071 137.122 304.153 137.264C304.238 137.403 304.346 137.497 304.477 137.545C304.61 137.591 304.751 137.614 304.899 137.614C305.01 137.614 305.1 137.608 305.172 137.597C305.243 137.582 305.299 137.571 305.342 137.562L305.547 138.466C305.478 138.491 305.383 138.517 305.261 138.543C305.139 138.571 304.984 138.585 304.797 138.585C304.512 138.585 304.234 138.524 303.961 138.402C303.691 138.28 303.467 138.094 303.288 137.844C303.112 137.594 303.024 137.278 303.024 136.898V130.386ZM309.614 138.636C308.983 138.636 308.439 138.497 307.982 138.219C307.527 137.938 307.176 137.545 306.929 137.043C306.685 136.537 306.563 135.949 306.563 135.278C306.563 134.608 306.685 134.017 306.929 133.506C307.176 132.991 307.52 132.591 307.961 132.304C308.404 132.014 308.921 131.869 309.512 131.869C309.853 131.869 310.189 131.926 310.522 132.04C310.854 132.153 311.157 132.338 311.429 132.594C311.702 132.847 311.919 133.182 312.081 133.599C312.243 134.017 312.324 134.531 312.324 135.142V135.568H307.279V134.699H311.301C311.301 134.33 311.228 134 311.08 133.71C310.935 133.42 310.728 133.192 310.458 133.024C310.191 132.857 309.875 132.773 309.512 132.773C309.111 132.773 308.765 132.872 308.472 133.071C308.182 133.267 307.959 133.523 307.803 133.838C307.647 134.153 307.569 134.491 307.569 134.852V135.432C307.569 135.926 307.654 136.345 307.824 136.689C307.998 137.03 308.238 137.29 308.544 137.469C308.851 137.645 309.208 137.733 309.614 137.733C309.878 137.733 310.117 137.696 310.33 137.622C310.546 137.545 310.732 137.432 310.888 137.281C311.044 137.128 311.165 136.937 311.25 136.71L312.222 136.983C312.12 137.312 311.948 137.602 311.706 137.852C311.465 138.099 311.167 138.293 310.811 138.432C310.456 138.568 310.057 138.636 309.614 138.636ZM316.326 138.636C315.78 138.636 315.299 138.499 314.881 138.223C314.463 137.945 314.137 137.553 313.901 137.047C313.665 136.538 313.547 135.938 313.547 135.244C313.547 134.557 313.665 133.96 313.901 133.455C314.137 132.949 314.465 132.558 314.885 132.283C315.306 132.007 315.792 131.869 316.343 131.869C316.769 131.869 317.105 131.94 317.353 132.082C317.603 132.222 317.793 132.381 317.924 132.56C318.057 132.736 318.161 132.881 318.235 132.994H318.32V129.773H319.326V138.5H318.354V137.494H318.235C318.161 137.614 318.056 137.764 317.919 137.946C317.783 138.125 317.588 138.286 317.336 138.428C317.083 138.567 316.746 138.636 316.326 138.636ZM316.462 137.733C316.865 137.733 317.206 137.628 317.485 137.418C317.763 137.205 317.975 136.911 318.12 136.536C318.265 136.158 318.337 135.722 318.337 135.227C318.337 134.739 318.266 134.311 318.124 133.945C317.982 133.575 317.772 133.288 317.493 133.084C317.215 132.876 316.871 132.773 316.462 132.773C316.036 132.773 315.681 132.882 315.397 133.101C315.115 133.317 314.904 133.611 314.762 133.983C314.623 134.352 314.553 134.767 314.553 135.227C314.553 135.693 314.624 136.116 314.766 136.497C314.911 136.875 315.124 137.176 315.405 137.401C315.689 137.622 316.042 137.733 316.462 137.733Z" fill="#20F382"/>
<g clip-path="url(#clip2_25_2469)">
<mask id="mask0_25_2469" style="mask-type:luminance" maskUnits="userSpaceOnUse" x="329" y="126" width="16" height="16">
<path d="M337 140.667C337.876 140.668 338.743 140.496 339.552 140.161C340.361 139.826 341.096 139.334 341.714 138.714C342.334 138.096 342.826 137.361 343.161 136.552C343.496 135.743 343.668 134.876 343.667 134C343.668 133.124 343.496 132.257 343.161 131.448C342.826 130.639 342.334 129.904 341.714 129.286C341.096 128.666 340.361 128.174 339.552 127.839C338.743 127.504 337.876 127.332 337 127.333C336.124 127.332 335.257 127.504 334.448 127.839C333.639 128.174 332.904 128.666 332.286 129.286C331.666 129.904 331.174 130.639 330.839 131.448C330.504 132.257 330.332 133.124 330.333 134C330.332 134.876 330.504 135.743 330.839 136.552C331.174 137.361 331.666 138.096 332.286 138.714C332.904 139.334 333.639 139.826 334.448 140.161C335.257 140.496 336.124 140.668 337 140.667Z" fill="white" stroke="white" stroke-width="1.33333" stroke-linejoin="round"/>
<path d="M334.333 134L336.333 136L340.333 132" stroke="black" stroke-width="1.33333" stroke-linecap="round" stroke-linejoin="round"/>
</mask>
<g mask="url(#mask0_25_2469)">
<path d="M329 126H345V142H329V126Z" fill="#20F382"/>
</g>
</g>
<rect x="12" y="126" width="65" height="16" rx="8" fill="#D7263D"/>
<path d="M33.7727 134.091C33.7727 134.718 33.6553 135.255 33.4205 135.702C33.1875 136.147 32.8693 136.488 32.4659 136.724C32.0644 136.961 31.6089 137.08 31.0994 137.08C30.59 137.08 30.1335 136.961 29.7301 136.724C29.3286 136.486 29.0104 136.144 28.7756 135.699C28.5426 135.252 28.4261 134.716 28.4261 134.091C28.4261 133.464 28.5426 132.928 28.7756 132.483C29.0104 132.036 29.3286 131.694 29.7301 131.457C30.1335 131.221 30.59 131.102 31.0994 131.102C31.6089 131.102 32.0644 131.221 32.4659 131.457C32.8693 131.694 33.1875 132.036 33.4205 132.483C33.6553 132.928 33.7727 133.464 33.7727 134.091ZM32.7131 134.091C32.7131 133.65 32.6439 133.277 32.5057 132.974C32.3693 132.67 32.1799 132.439 31.9375 132.284C31.6951 132.127 31.4157 132.048 31.0994 132.048C30.7831 132.048 30.5038 132.127 30.2614 132.284C30.0189 132.439 29.8286 132.67 29.6903 132.974C29.554 133.277 29.4858 133.65 29.4858 134.091C29.4858 134.532 29.554 134.905 29.6903 135.21C29.8286 135.513 30.0189 135.743 30.2614 135.901C30.5038 136.056 30.7831 136.134 31.0994 136.134C31.4157 136.134 31.6951 136.056 31.9375 135.901C32.1799 135.743 32.3693 135.513 32.5057 135.21C32.6439 134.905 32.7131 134.532 32.7131 134.091ZM35.7521 134.443V137H34.7237V132.636H35.7067V133.378H35.7578C35.8582 133.134 36.0182 132.939 36.2379 132.795C36.4595 132.652 36.7332 132.58 37.0589 132.58C37.3601 132.58 37.6224 132.644 37.8459 132.773C38.0713 132.902 38.2455 133.088 38.3686 133.332C38.4936 133.577 38.5552 133.873 38.5533 134.222V137H37.5249V134.381C37.5249 134.089 37.4491 133.861 37.2976 133.696C37.148 133.531 36.9406 133.449 36.6754 133.449C36.4955 133.449 36.3355 133.489 36.1953 133.568C36.0571 133.646 35.9482 133.759 35.8686 133.906C35.791 134.054 35.7521 134.233 35.7521 134.443ZM41.4964 138.727C41.1271 138.727 40.8099 138.677 40.5447 138.577C40.2796 138.478 40.0665 138.346 39.9055 138.179C39.7446 138.012 39.6328 137.828 39.5703 137.625L40.4964 137.401C40.5381 137.486 40.5987 137.57 40.6783 137.653C40.7578 137.739 40.8648 137.809 40.9993 137.864C41.1357 137.92 41.3071 137.949 41.5135 137.949C41.8052 137.949 42.0466 137.878 42.2379 137.736C42.4292 137.596 42.5249 137.365 42.5249 137.043V136.216H42.4737C42.4207 136.322 42.343 136.431 42.2408 136.543C42.1404 136.654 42.0069 136.748 41.8402 136.824C41.6754 136.9 41.468 136.938 41.218 136.938C40.8828 136.938 40.5788 136.859 40.3061 136.702C40.0353 136.543 39.8194 136.306 39.6584 135.991C39.4993 135.675 39.4197 135.279 39.4197 134.804C39.4197 134.325 39.4993 133.92 39.6584 133.591C39.8194 133.259 40.0362 133.009 40.3089 132.838C40.5817 132.666 40.8857 132.58 41.2209 132.58C41.4766 132.58 41.6868 132.623 41.8516 132.71C42.0182 132.795 42.1508 132.899 42.2493 133.02C42.3478 133.139 42.4226 133.252 42.4737 133.358H42.5305V132.636H43.5447V137.071C43.5447 137.444 43.4557 137.753 43.2777 137.997C43.0997 138.241 42.8563 138.424 42.5476 138.545C42.2389 138.667 41.8885 138.727 41.4964 138.727ZM41.505 136.131C41.7228 136.131 41.9084 136.078 42.0618 135.972C42.2152 135.866 42.3317 135.713 42.4112 135.514C42.4908 135.315 42.5305 135.077 42.5305 134.798C42.5305 134.524 42.4908 134.283 42.4112 134.077C42.3336 133.87 42.218 133.71 42.0646 133.597C41.9131 133.481 41.7266 133.423 41.505 133.423C41.2758 133.423 41.0845 133.483 40.9311 133.602C40.7777 133.722 40.6622 133.885 40.5845 134.094C40.5069 134.3 40.468 134.535 40.468 134.798C40.468 135.065 40.5069 135.299 40.5845 135.5C40.6641 135.699 40.7805 135.854 40.9339 135.966C41.0893 136.076 41.2796 136.131 41.505 136.131ZM46.5021 137.085C46.076 137.085 45.7067 136.991 45.3942 136.804C45.0817 136.616 44.8393 136.354 44.6669 136.017C44.4964 135.68 44.4112 135.286 44.4112 134.835C44.4112 134.384 44.4964 133.99 44.6669 133.651C44.8393 133.312 45.0817 133.048 45.3942 132.861C45.7067 132.673 46.076 132.58 46.5021 132.58C46.9283 132.58 47.2976 132.673 47.6101 132.861C47.9226 133.048 48.1641 133.312 48.3345 133.651C48.5069 133.99 48.593 134.384 48.593 134.835C48.593 135.286 48.5069 135.68 48.3345 136.017C48.1641 136.354 47.9226 136.616 47.6101 136.804C47.2976 136.991 46.9283 137.085 46.5021 137.085ZM46.5078 136.261C46.7389 136.261 46.9321 136.198 47.0874 136.071C47.2427 135.942 47.3582 135.77 47.4339 135.554C47.5116 135.338 47.5504 135.098 47.5504 134.832C47.5504 134.565 47.5116 134.324 47.4339 134.108C47.3582 133.89 47.2427 133.717 47.0874 133.588C46.9321 133.459 46.7389 133.395 46.5078 133.395C46.2711 133.395 46.0741 133.459 45.9169 133.588C45.7616 133.717 45.6451 133.89 45.5675 134.108C45.4917 134.324 45.4538 134.565 45.4538 134.832C45.4538 135.098 45.4917 135.338 45.5675 135.554C45.6451 135.77 45.7616 135.942 45.9169 136.071C46.0741 136.198 46.2711 136.261 46.5078 136.261ZM49.4659 137V132.636H50.4943V137H49.4659ZM49.983 132.017C49.8201 132.017 49.6799 131.963 49.5625 131.855C49.4451 131.745 49.3864 131.614 49.3864 131.46C49.3864 131.305 49.4451 131.173 49.5625 131.065C49.6799 130.955 49.8201 130.901 49.983 130.901C50.1477 130.901 50.2879 130.955 50.4034 131.065C50.5208 131.173 50.5795 131.305 50.5795 131.46C50.5795 131.614 50.5208 131.745 50.4034 131.855C50.2879 131.963 50.1477 132.017 49.983 132.017ZM52.5803 134.443V137H51.5518V132.636H52.5348V133.378H52.5859C52.6863 133.134 52.8464 132.939 53.0661 132.795C53.2876 132.652 53.5613 132.58 53.8871 132.58C54.1882 132.58 54.4505 132.644 54.674 132.773C54.8994 132.902 55.0736 133.088 55.1967 133.332C55.3217 133.577 55.3833 133.873 55.3814 134.222V137H54.353V134.381C54.353 134.089 54.2772 133.861 54.1257 133.696C53.9761 133.531 53.7687 133.449 53.5036 133.449C53.3236 133.449 53.1636 133.489 53.0234 133.568C52.8852 133.646 52.7763 133.759 52.6967 133.906C52.6191 134.054 52.5803 134.233 52.5803 134.443ZM58.3246 138.727C57.9553 138.727 57.638 138.677 57.3729 138.577C57.1077 138.478 56.8946 138.346 56.7337 138.179C56.5727 138.012 56.4609 137.828 56.3984 137.625L57.3246 137.401C57.3662 137.486 57.4268 137.57 57.5064 137.653C57.5859 137.739 57.6929 137.809 57.8274 137.864C57.9638 137.92 58.1352 137.949 58.3416 137.949C58.6333 137.949 58.8748 137.878 59.0661 137.736C59.2573 137.596 59.353 137.365 59.353 137.043V136.216H59.3018C59.2488 136.322 59.1712 136.431 59.0689 136.543C58.9685 136.654 58.835 136.748 58.6683 136.824C58.5036 136.9 58.2962 136.938 58.0462 136.938C57.7109 136.938 57.407 136.859 57.1342 136.702C56.8634 136.543 56.6475 136.306 56.4865 135.991C56.3274 135.675 56.2479 135.279 56.2479 134.804C56.2479 134.325 56.3274 133.92 56.4865 133.591C56.6475 133.259 56.8643 133.009 57.1371 132.838C57.4098 132.666 57.7138 132.58 58.049 132.58C58.3047 132.58 58.5149 132.623 58.6797 132.71C58.8464 132.795 58.9789 132.899 59.0774 133.02C59.1759 133.139 59.2507 133.252 59.3018 133.358H59.3587V132.636H60.3729V137.071C60.3729 137.444 60.2839 137.753 60.1058 137.997C59.9278 138.241 59.6844 138.424 59.3757 138.545C59.067 138.667 58.7166 138.727 58.3246 138.727ZM58.3331 136.131C58.5509 136.131 58.7365 136.078 58.8899 135.972C59.0433 135.866 59.1598 135.713 59.2393 135.514C59.3189 135.315 59.3587 135.077 59.3587 134.798C59.3587 134.524 59.3189 134.283 59.2393 134.077C59.1617 133.87 59.0462 133.71 58.8928 133.597C58.7412 133.481 58.5547 133.423 58.3331 133.423C58.1039 133.423 57.9126 133.483 57.7592 133.602C57.6058 133.722 57.4903 133.885 57.4126 134.094C57.335 134.3 57.2962 134.535 57.2962 134.798C57.2962 135.065 57.335 135.299 57.4126 135.5C57.4922 135.699 57.6087 135.854 57.7621 135.966C57.9174 136.076 58.1077 136.131 58.3331 136.131Z" fill="#FEFEFF"/>
<path d="M86.321 137H85.196L87.2443 131.182H88.5455L90.5966 137H89.4716L87.9176 132.375H87.8722L86.321 137ZM86.358 134.719H89.4261V135.565H86.358V134.719ZM91.3629 137V131.182H92.3913V133.358H92.4339C92.487 133.252 92.5618 133.139 92.6584 133.02C92.755 132.899 92.8857 132.795 93.0504 132.71C93.2152 132.623 93.4254 132.58 93.6811 132.58C94.0182 132.58 94.3222 132.666 94.593 132.838C94.8658 133.009 95.0817 133.261 95.2408 133.597C95.4018 133.93 95.4822 134.339 95.4822 134.824C95.4822 135.303 95.4036 135.71 95.2464 136.045C95.0893 136.381 94.8752 136.636 94.6044 136.812C94.3336 136.989 94.0268 137.077 93.6839 137.077C93.4339 137.077 93.2266 137.035 93.0618 136.952C92.897 136.868 92.7644 136.768 92.6641 136.651C92.5656 136.531 92.4889 136.419 92.4339 136.312H92.3743V137H91.3629ZM92.3714 134.818C92.3714 135.1 92.4112 135.348 92.4908 135.56C92.5722 135.772 92.6887 135.937 92.8402 136.057C92.9936 136.174 93.1792 136.233 93.397 136.233C93.6243 136.233 93.8146 136.172 93.968 136.051C94.1214 135.928 94.237 135.76 94.3146 135.548C94.3942 135.334 94.4339 135.091 94.4339 134.818C94.4339 134.547 94.3951 134.307 94.3175 134.097C94.2398 133.886 94.1243 133.722 93.9709 133.602C93.8175 133.483 93.6262 133.423 93.397 133.423C93.1773 133.423 92.9908 133.481 92.8374 133.597C92.6839 133.712 92.5675 133.874 92.4879 134.082C92.4103 134.291 92.3714 134.536 92.3714 134.818ZM98.2599 137.085C97.8338 137.085 97.4645 136.991 97.152 136.804C96.8395 136.616 96.5971 136.354 96.4247 136.017C96.2543 135.68 96.169 135.286 96.169 134.835C96.169 134.384 96.2543 133.99 96.4247 133.651C96.5971 133.312 96.8395 133.048 97.152 132.861C97.4645 132.673 97.8338 132.58 98.2599 132.58C98.6861 132.58 99.0554 132.673 99.3679 132.861C99.6804 133.048 99.9219 133.312 100.092 133.651C100.265 133.99 100.351 134.384 100.351 134.835C100.351 135.286 100.265 135.68 100.092 136.017C99.9219 136.354 99.6804 136.616 99.3679 136.804C99.0554 136.991 98.6861 137.085 98.2599 137.085ZM98.2656 136.261C98.4967 136.261 98.6899 136.198 98.8452 136.071C99.0005 135.942 99.116 135.77 99.1918 135.554C99.2694 135.338 99.3082 135.098 99.3082 134.832C99.3082 134.565 99.2694 134.324 99.1918 134.108C99.116 133.89 99.0005 133.717 98.8452 133.588C98.6899 133.459 98.4967 133.395 98.2656 133.395C98.0289 133.395 97.8319 133.459 97.6747 133.588C97.5194 133.717 97.4029 133.89 97.3253 134.108C97.2495 134.324 97.2116 134.565 97.2116 134.832C97.2116 135.098 97.2495 135.338 97.3253 135.554C97.4029 135.77 97.5194 135.942 97.6747 136.071C97.8319 136.198 98.0289 136.261 98.2656 136.261ZM104.005 135.165V132.636H105.033V137H104.036V136.224H103.991C103.892 136.469 103.73 136.669 103.505 136.824C103.281 136.979 103.006 137.057 102.678 137.057C102.392 137.057 102.139 136.993 101.92 136.866C101.702 136.738 101.531 136.551 101.408 136.307C101.285 136.061 101.224 135.763 101.224 135.415V132.636H102.252V135.256C102.252 135.532 102.328 135.752 102.479 135.915C102.631 136.078 102.83 136.159 103.076 136.159C103.228 136.159 103.374 136.122 103.516 136.048C103.658 135.974 103.775 135.865 103.866 135.719C103.959 135.571 104.005 135.386 104.005 135.165ZM108.27 132.636V133.432H105.761V132.636H108.27ZM106.381 131.591H107.409V135.688C107.409 135.826 107.43 135.932 107.472 136.006C107.515 136.078 107.572 136.127 107.642 136.153C107.712 136.18 107.79 136.193 107.875 136.193C107.939 136.193 107.998 136.188 108.051 136.179C108.106 136.17 108.148 136.161 108.176 136.153L108.349 136.957C108.295 136.976 108.216 136.997 108.114 137.02C108.013 137.043 107.89 137.056 107.744 137.06C107.487 137.067 107.255 137.028 107.048 136.943C106.842 136.856 106.678 136.722 106.557 136.54C106.438 136.358 106.379 136.131 106.381 135.858V131.591ZM113.191 137.08C112.782 137.08 112.418 137.009 112.1 136.869C111.784 136.729 111.534 136.534 111.35 136.284C111.166 136.034 111.069 135.745 111.058 135.418H112.126C112.135 135.575 112.187 135.712 112.282 135.83C112.377 135.945 112.503 136.035 112.66 136.099C112.817 136.164 112.993 136.196 113.188 136.196C113.397 136.196 113.581 136.16 113.742 136.088C113.903 136.014 114.029 135.912 114.12 135.781C114.211 135.651 114.255 135.5 114.254 135.33C114.255 135.153 114.21 134.998 114.117 134.864C114.024 134.729 113.89 134.624 113.714 134.548C113.54 134.473 113.329 134.435 113.083 134.435H112.569V133.622H113.083C113.286 133.622 113.463 133.587 113.614 133.517C113.768 133.447 113.888 133.348 113.975 133.222C114.062 133.093 114.105 132.944 114.103 132.776C114.105 132.611 114.068 132.468 113.992 132.347C113.918 132.223 113.813 132.128 113.677 132.06C113.542 131.991 113.384 131.957 113.202 131.957C113.024 131.957 112.86 131.99 112.708 132.054C112.557 132.118 112.434 132.21 112.342 132.33C112.249 132.447 112.2 132.587 112.194 132.75H111.18C111.187 132.424 111.281 132.138 111.461 131.892C111.643 131.644 111.885 131.451 112.188 131.312C112.491 131.172 112.831 131.102 113.208 131.102C113.596 131.102 113.933 131.175 114.219 131.321C114.507 131.465 114.73 131.659 114.887 131.903C115.044 132.148 115.123 132.418 115.123 132.713C115.125 133.041 115.028 133.315 114.833 133.537C114.64 133.759 114.386 133.903 114.072 133.972V134.017C114.481 134.074 114.794 134.225 115.012 134.472C115.232 134.716 115.341 135.02 115.339 135.384C115.339 135.709 115.246 136.001 115.06 136.259C114.877 136.514 114.623 136.715 114.299 136.861C113.977 137.007 113.608 137.08 113.191 137.08ZM118.402 137.08C117.993 137.08 117.629 137.009 117.311 136.869C116.995 136.729 116.745 136.534 116.561 136.284C116.377 136.034 116.28 135.745 116.268 135.418H117.337C117.346 135.575 117.398 135.712 117.493 135.83C117.588 135.945 117.714 136.035 117.871 136.099C118.028 136.164 118.204 136.196 118.399 136.196C118.607 136.196 118.792 136.16 118.953 136.088C119.114 136.014 119.24 135.912 119.331 135.781C119.422 135.651 119.466 135.5 119.464 135.33C119.466 135.153 119.421 134.998 119.328 134.864C119.235 134.729 119.101 134.624 118.925 134.548C118.75 134.473 118.54 134.435 118.294 134.435H117.78V133.622H118.294C118.497 133.622 118.674 133.587 118.825 133.517C118.979 133.447 119.099 133.348 119.186 133.222C119.273 133.093 119.316 132.944 119.314 132.776C119.316 132.611 119.279 132.468 119.203 132.347C119.129 132.223 119.024 132.128 118.888 132.06C118.753 131.991 118.595 131.957 118.413 131.957C118.235 131.957 118.071 131.99 117.919 132.054C117.768 132.118 117.645 132.21 117.553 132.33C117.46 132.447 117.411 132.587 117.405 132.75H116.391C116.398 132.424 116.492 132.138 116.672 131.892C116.854 131.644 117.096 131.451 117.399 131.312C117.702 131.172 118.042 131.102 118.419 131.102C118.807 131.102 119.144 131.175 119.43 131.321C119.718 131.465 119.941 131.659 120.098 131.903C120.255 132.148 120.334 132.418 120.334 132.713C120.336 133.041 120.239 133.315 120.044 133.537C119.851 133.759 119.597 133.903 119.283 133.972V134.017C119.692 134.074 120.005 134.225 120.223 134.472C120.443 134.716 120.552 135.02 120.55 135.384C120.55 135.709 120.457 136.001 120.271 136.259C120.088 136.514 119.834 136.715 119.51 136.861C119.188 137.007 118.819 137.08 118.402 137.08ZM123.548 137.08C123.169 137.08 122.83 137.009 122.531 136.866C122.231 136.723 121.994 136.526 121.817 136.276C121.643 136.026 121.55 135.74 121.539 135.418H122.562C122.581 135.656 122.684 135.851 122.871 136.003C123.059 136.152 123.284 136.227 123.548 136.227C123.754 136.227 123.938 136.18 124.099 136.085C124.26 135.991 124.387 135.859 124.479 135.69C124.572 135.522 124.618 135.33 124.616 135.114C124.618 134.894 124.571 134.699 124.477 134.528C124.382 134.358 124.252 134.224 124.087 134.128C123.923 134.029 123.733 133.98 123.519 133.98C123.345 133.978 123.174 134.01 123.005 134.077C122.836 134.143 122.703 134.23 122.604 134.338L121.653 134.182L121.957 131.182H125.332V132.062H122.829L122.661 133.605H122.695C122.803 133.478 122.956 133.373 123.153 133.29C123.35 133.205 123.566 133.162 123.8 133.162C124.153 133.162 124.467 133.245 124.744 133.412C125.02 133.577 125.238 133.804 125.397 134.094C125.556 134.384 125.636 134.715 125.636 135.088C125.636 135.473 125.547 135.815 125.369 136.116C125.192 136.416 124.947 136.652 124.633 136.824C124.32 136.994 123.959 137.08 123.548 137.08ZM127.536 135.631L127.533 134.389H127.698L129.266 132.636H130.468L128.539 134.784H128.326L127.536 135.631ZM126.599 137V131.182H127.627V137H126.599ZM129.337 137L127.917 135.014L128.61 134.29L130.567 137H129.337ZM137.036 132.636L135.482 137H134.345L132.791 132.636H133.888L134.891 135.878H134.936L135.942 132.636H137.036ZM139.502 137.085C139.076 137.085 138.707 136.991 138.394 136.804C138.082 136.616 137.839 136.354 137.667 136.017C137.496 135.68 137.411 135.286 137.411 134.835C137.411 134.384 137.496 133.99 137.667 133.651C137.839 133.312 138.082 133.048 138.394 132.861C138.707 132.673 139.076 132.58 139.502 132.58C139.928 132.58 140.298 132.673 140.61 132.861C140.923 133.048 141.164 133.312 141.335 133.651C141.507 133.99 141.593 134.384 141.593 134.835C141.593 135.286 141.507 135.68 141.335 136.017C141.164 136.354 140.923 136.616 140.61 136.804C140.298 136.991 139.928 137.085 139.502 137.085ZM139.508 136.261C139.739 136.261 139.932 136.198 140.087 136.071C140.243 135.942 140.358 135.77 140.434 135.554C140.512 135.338 140.55 135.098 140.55 134.832C140.55 134.565 140.512 134.324 140.434 134.108C140.358 133.89 140.243 133.717 140.087 133.588C139.932 133.459 139.739 133.395 139.508 133.395C139.271 133.395 139.074 133.459 138.917 133.588C138.762 133.717 138.645 133.89 138.567 134.108C138.492 134.324 138.454 134.565 138.454 134.832C138.454 135.098 138.492 135.338 138.567 135.554C138.645 135.77 138.762 135.942 138.917 136.071C139.074 136.198 139.271 136.261 139.508 136.261ZM144.645 132.636V133.432H142.136V132.636H144.645ZM142.756 131.591H143.784V135.688C143.784 135.826 143.805 135.932 143.847 136.006C143.89 136.078 143.947 136.127 144.017 136.153C144.087 136.18 144.165 136.193 144.25 136.193C144.314 136.193 144.373 136.188 144.426 136.179C144.481 136.17 144.523 136.161 144.551 136.153L144.724 136.957C144.67 136.976 144.591 136.997 144.489 137.02C144.388 137.043 144.265 137.056 144.119 137.06C143.862 137.067 143.63 137.028 143.423 136.943C143.217 136.856 143.053 136.722 142.932 136.54C142.813 136.358 142.754 136.131 142.756 135.858V131.591ZM147.39 137.085C146.952 137.085 146.575 136.994 146.256 136.812C145.94 136.629 145.697 136.369 145.526 136.034C145.356 135.697 145.271 135.3 145.271 134.844C145.271 134.395 145.356 134.001 145.526 133.662C145.699 133.321 145.939 133.056 146.248 132.866C146.557 132.675 146.919 132.58 147.336 132.58C147.605 132.58 147.859 132.623 148.097 132.71C148.338 132.795 148.55 132.928 148.734 133.108C148.919 133.288 149.065 133.517 149.171 133.795C149.277 134.072 149.33 134.402 149.33 134.784V135.099H145.754V134.406H148.344C148.343 134.209 148.3 134.034 148.217 133.881C148.133 133.725 148.017 133.603 147.867 133.514C147.719 133.425 147.547 133.381 147.35 133.381C147.14 133.381 146.955 133.432 146.796 133.534C146.637 133.634 146.513 133.767 146.424 133.932C146.337 134.095 146.292 134.274 146.29 134.469V135.074C146.29 135.328 146.337 135.545 146.43 135.727C146.522 135.907 146.652 136.045 146.819 136.142C146.986 136.237 147.181 136.284 147.404 136.284C147.554 136.284 147.689 136.263 147.81 136.222C147.932 136.178 148.037 136.115 148.126 136.031C148.215 135.948 148.282 135.845 148.327 135.722L149.288 135.83C149.227 136.083 149.112 136.305 148.941 136.494C148.772 136.682 148.557 136.828 148.293 136.932C148.03 137.034 147.729 137.085 147.39 137.085ZM153.649 133.79L152.712 133.892C152.685 133.797 152.639 133.708 152.572 133.625C152.508 133.542 152.421 133.474 152.311 133.423C152.201 133.372 152.067 133.347 151.908 133.347C151.694 133.347 151.514 133.393 151.368 133.486C151.224 133.579 151.153 133.699 151.155 133.847C151.153 133.973 151.199 134.077 151.294 134.156C151.391 134.236 151.55 134.301 151.771 134.352L152.516 134.511C152.929 134.6 153.235 134.741 153.436 134.935C153.639 135.128 153.741 135.381 153.743 135.693C153.741 135.968 153.661 136.21 153.501 136.42C153.344 136.629 153.125 136.792 152.845 136.909C152.565 137.027 152.243 137.085 151.879 137.085C151.345 137.085 150.915 136.973 150.589 136.75C150.264 136.525 150.07 136.211 150.007 135.81L151.01 135.713C151.055 135.91 151.152 136.059 151.3 136.159C151.447 136.259 151.64 136.31 151.876 136.31C152.121 136.31 152.317 136.259 152.464 136.159C152.614 136.059 152.689 135.935 152.689 135.787C152.689 135.662 152.641 135.559 152.544 135.477C152.449 135.396 152.302 135.333 152.101 135.29L151.357 135.134C150.938 135.046 150.628 134.9 150.428 134.693C150.227 134.485 150.127 134.222 150.129 133.903C150.127 133.634 150.2 133.402 150.348 133.205C150.498 133.006 150.705 132.852 150.97 132.744C151.237 132.634 151.545 132.58 151.893 132.58C152.405 132.58 152.807 132.688 153.101 132.906C153.396 133.124 153.579 133.419 153.649 133.79Z" fill="#FEFEFF"/>
<path d="M160.473 132.636L158.919 137H157.783L156.229 132.636H157.325L158.328 135.878H158.374L159.379 132.636H160.473ZM162.968 137.085C162.531 137.085 162.153 136.994 161.835 136.812C161.518 136.629 161.275 136.369 161.104 136.034C160.934 135.697 160.849 135.3 160.849 134.844C160.849 134.395 160.934 134.001 161.104 133.662C161.277 133.321 161.517 133.056 161.826 132.866C162.135 132.675 162.497 132.58 162.914 132.58C163.183 132.58 163.437 132.623 163.675 132.71C163.916 132.795 164.128 132.928 164.312 133.108C164.497 133.288 164.643 133.517 164.749 133.795C164.855 134.072 164.908 134.402 164.908 134.784V135.099H161.332V134.406H163.923C163.921 134.209 163.878 134.034 163.795 133.881C163.711 133.725 163.595 133.603 163.445 133.514C163.298 133.425 163.125 133.381 162.928 133.381C162.718 133.381 162.533 133.432 162.374 133.534C162.215 133.634 162.091 133.767 162.002 133.932C161.915 134.095 161.871 134.274 161.869 134.469V135.074C161.869 135.328 161.915 135.545 162.008 135.727C162.101 135.907 162.23 136.045 162.397 136.142C162.564 136.237 162.759 136.284 162.982 136.284C163.132 136.284 163.267 136.263 163.388 136.222C163.51 136.178 163.615 136.115 163.704 136.031C163.793 135.948 163.86 135.845 163.906 135.722L164.866 135.83C164.805 136.083 164.69 136.305 164.519 136.494C164.351 136.682 164.135 136.828 163.871 136.932C163.608 137.034 163.307 137.085 162.968 137.085ZM165.778 137V132.636H166.776V133.364H166.821C166.901 133.112 167.037 132.918 167.23 132.781C167.425 132.643 167.648 132.574 167.898 132.574C167.955 132.574 168.018 132.577 168.088 132.582C168.16 132.586 168.22 132.593 168.267 132.602V133.548C168.223 133.533 168.154 133.52 168.06 133.509C167.967 133.495 167.877 133.489 167.79 133.489C167.602 133.489 167.434 133.529 167.284 133.611C167.136 133.69 167.02 133.801 166.935 133.943C166.849 134.085 166.807 134.249 166.807 134.435V137H165.778ZM168.95 137V132.636H169.979V137H168.95ZM169.467 132.017C169.304 132.017 169.164 131.963 169.047 131.855C168.929 131.745 168.871 131.614 168.871 131.46C168.871 131.305 168.929 131.173 169.047 131.065C169.164 130.955 169.304 130.901 169.467 130.901C169.632 130.901 169.772 130.955 169.888 131.065C170.005 131.173 170.064 131.305 170.064 131.46C170.064 131.614 170.005 131.745 169.888 131.855C169.772 131.963 169.632 132.017 169.467 132.017ZM173.246 132.636V133.432H170.667V132.636H173.246ZM171.312 137V132.224C171.312 131.931 171.372 131.687 171.494 131.491C171.617 131.296 171.781 131.151 171.988 131.054C172.194 130.957 172.424 130.909 172.675 130.909C172.853 130.909 173.012 130.923 173.15 130.952C173.288 130.98 173.39 131.006 173.457 131.028L173.252 131.824C173.209 131.811 173.154 131.797 173.087 131.784C173.021 131.769 172.947 131.761 172.866 131.761C172.674 131.761 172.539 131.808 172.46 131.901C172.382 131.991 172.343 132.122 172.343 132.293V137H171.312ZM174.052 137V132.636H175.08V137H174.052ZM174.569 132.017C174.406 132.017 174.266 131.963 174.148 131.855C174.031 131.745 173.972 131.614 173.972 131.46C173.972 131.305 174.031 131.173 174.148 131.065C174.266 130.955 174.406 130.901 174.569 130.901C174.734 130.901 174.874 130.955 174.989 131.065C175.107 131.173 175.165 131.305 175.165 131.46C175.165 131.614 175.107 131.745 174.989 131.855C174.874 131.963 174.734 132.017 174.569 132.017ZM178.07 137.085C177.632 137.085 177.254 136.994 176.936 136.812C176.62 136.629 176.376 136.369 176.206 136.034C176.036 135.697 175.95 135.3 175.95 134.844C175.95 134.395 176.036 134.001 176.206 133.662C176.378 133.321 176.619 133.056 176.928 132.866C177.236 132.675 177.599 132.58 178.016 132.58C178.285 132.58 178.538 132.623 178.777 132.71C179.018 132.795 179.23 132.928 179.413 133.108C179.599 133.288 179.745 133.517 179.851 133.795C179.957 134.072 180.01 134.402 180.01 134.784V135.099H176.433V134.406H179.024C179.022 134.209 178.98 134.034 178.896 133.881C178.813 133.725 178.696 133.603 178.547 133.514C178.399 133.425 178.227 133.381 178.03 133.381C177.82 133.381 177.635 133.432 177.476 133.534C177.317 133.634 177.193 133.767 177.104 133.932C177.017 134.095 176.972 134.274 176.97 134.469V135.074C176.97 135.328 177.017 135.545 177.109 135.727C177.202 135.907 177.332 136.045 177.499 136.142C177.665 136.237 177.86 136.284 178.084 136.284C178.233 136.284 178.369 136.263 178.49 136.222C178.611 136.178 178.716 136.115 178.805 136.031C178.894 135.948 178.962 135.845 179.007 135.722L179.967 135.83C179.907 136.083 179.791 136.305 179.621 136.494C179.452 136.682 179.236 136.828 178.973 136.932C178.71 137.034 178.409 137.085 178.07 137.085ZM182.499 137.077C182.156 137.077 181.85 136.989 181.579 136.812C181.308 136.636 181.094 136.381 180.937 136.045C180.78 135.71 180.701 135.303 180.701 134.824C180.701 134.339 180.781 133.93 180.94 133.597C181.101 133.261 181.317 133.009 181.59 132.838C181.863 132.666 182.167 132.58 182.502 132.58C182.758 132.58 182.968 132.623 183.133 132.71C183.298 132.795 183.428 132.899 183.525 133.02C183.621 133.139 183.696 133.252 183.749 133.358H183.792V131.182H184.823V137H183.812V136.312H183.749C183.696 136.419 183.62 136.531 183.519 136.651C183.419 136.768 183.286 136.868 183.121 136.952C182.957 137.035 182.749 137.077 182.499 137.077ZM182.786 136.233C183.004 136.233 183.19 136.174 183.343 136.057C183.496 135.937 183.613 135.772 183.692 135.56C183.772 135.348 183.812 135.1 183.812 134.818C183.812 134.536 183.772 134.291 183.692 134.082C183.615 133.874 183.499 133.712 183.346 133.597C183.194 133.481 183.008 133.423 182.786 133.423C182.557 133.423 182.366 133.483 182.212 133.602C182.059 133.722 181.943 133.886 181.866 134.097C181.788 134.307 181.749 134.547 181.749 134.818C181.749 135.091 181.788 135.334 181.866 135.548C181.945 135.76 182.062 135.928 182.215 136.051C182.371 136.172 182.561 136.233 182.786 136.233Z" fill="#20F382"/>
</g>
<defs>
<clipPath id="clip0_25_2469">
<rect width="363" height="149" rx="8" fill="white"/>
</clipPath>
<clipPath id="clip1_25_2469">
<rect width="443" height="263" fill="white" transform="translate(41 -20)"/>
</clipPath>
<clipPath id="clip2_25_2469">
<rect width="16" height="16" fill="white" transform="translate(329 126)"/>
</clipPath>
</defs>
</svg>
